<svg width="212" height="63" viewBox="0 0 212 63" fill="none" xmlns="http://www.w3.org/2000/svg">
<path d="M164.245 40.2269C163.782 40.1734 163.317 40.1338 162.856 40.0664C159.317 39.5498 156.437 37.8931 154.234 35.1148C152.489 32.9136 151.567 30.3936 151.473 27.599C151.426 26.2424 151.45 24.8859 151.45 23.5293C151.448 20.2298 151.45 16.9303 151.45 13.6284C151.45 7.26911 156.028 1.83819 162.346 0.693369C169.526 -0.605025 176.467 4.13016 177.763 11.2341C177.902 11.9973 177.97 12.7838 177.975 13.561C177.993 18.0146 177.982 22.4659 177.984 26.9195C177.986 30.6774 176.651 33.8932 173.935 36.5179C171.899 38.4841 169.446 39.6591 166.625 40.0664C166.155 40.1338 165.68 40.1757 165.207 40.2292H164.245V40.2269ZM154.382 20.3275C154.382 22.5776 154.363 24.8277 154.394 27.0754C154.403 27.7944 154.471 28.5274 154.626 29.2301C155.847 34.7122 161.118 38.142 166.695 37.1089C171.469 36.2247 175.042 31.9805 175.047 27.1825C175.052 22.6265 175.052 18.0728 175.045 13.5191C175.045 13.0746 175.012 12.6256 174.948 12.1858C174.201 6.98058 169.63 3.20174 164.321 3.40883C161.424 3.52052 158.995 4.66069 157.051 6.77581C155.282 8.69781 154.412 10.9874 154.387 13.5796C154.363 15.8273 154.382 18.0774 154.382 20.3275Z" fill="black"/>
<path d="M192.171 40.2269C192.077 40.1897 191.983 40.1548 191.889 40.1152C191.41 39.9151 191.12 39.5638 191.043 39.0542C191.022 38.9076 191.017 38.7587 191.017 38.6097C191.017 29.9282 191.012 21.2466 191.019 12.5651C191.022 10.7641 191.339 9.01426 192.103 7.36916C193.726 3.8649 196.47 1.65437 200.246 0.812043C204.332 -0.10009 207.984 0.881846 211.13 3.63686C211.271 3.76019 211.4 3.89515 211.532 4.02778C212.157 4.65836 212.155 5.50069 211.532 6.108C210.916 6.70601 210.046 6.68972 209.425 6.05681C208.527 5.14235 207.471 4.46988 206.274 4.00451C202.082 2.38035 197.281 4.04174 195.136 7.86246C194.398 9.17714 194.038 10.5989 193.973 12.095C193.954 12.5488 193.951 13.0048 193.951 13.4609C193.951 21.7981 193.951 30.1353 193.951 38.4725C193.951 39.5382 193.761 39.829 192.795 40.2269H192.171Z" fill="black"/>
<path d="M22.3653 6.36861C22.6404 5.94977 22.8849 5.53326 23.1718 5.147C25.1421 2.4967 27.792 0.930711 31.0697 0.46301C34.7118 -0.0558825 37.9683 0.886502 40.7569 3.26456C42.8331 5.03531 44.0534 7.31797 44.5142 9.97758C44.6718 10.8781 44.7423 11.8065 44.7446 12.721C44.7611 21.0116 44.7541 29.3046 44.7541 37.5952C44.7541 37.7628 44.7587 37.9326 44.7352 38.0955C44.6247 38.861 43.9899 39.3706 43.2116 39.3241C42.3675 39.2729 41.822 38.7075 41.822 37.8744C41.8197 29.407 41.8244 20.9372 41.8197 12.4697C41.8173 10.3429 41.2883 8.36274 39.9575 6.65714C38.3139 4.54899 36.1108 3.42977 33.4421 3.2506C30.9145 3.08074 28.6714 3.82534 26.7763 5.50301C25.1092 6.98058 24.2157 8.86767 23.943 11.0479C23.863 11.6902 23.8395 12.344 23.8395 12.9932C23.8325 21.2745 23.8348 29.5582 23.8348 37.8395C23.8348 38.8029 23.2282 39.4125 22.3089 39.3846C21.5988 39.3613 21.0392 38.8727 20.9404 38.1746C20.9122 37.9722 20.9028 37.7674 20.9028 37.5626C20.9004 29.1138 20.9098 20.6626 20.8934 12.2137C20.8887 9.98689 20.2162 7.96484 18.7279 6.26157C17.0984 4.39774 15.0035 3.4065 12.5276 3.24827C9.92473 3.08307 7.63224 3.86722 5.72066 5.63565C4.20879 7.0341 3.36939 8.79088 3.07078 10.8013C2.98379 11.3877 2.94852 11.9857 2.94617 12.5767C2.93911 20.9697 2.93911 29.3651 2.94146 37.7581C2.94146 38.3468 2.76512 38.8424 2.21492 39.1379C1.30028 39.6289 -0.00702538 39.1333 2.84249e-05 37.8209C0.0188386 33.5278 0.00708194 29.2324 0.00708194 24.937C0.00708194 20.7533 -0.00232442 16.5719 0.00943192 12.3882C0.0164857 9.75653 0.681893 7.31099 2.25959 5.16096C4.22055 2.49204 6.88689 0.921401 10.1763 0.460681C14.0747 -0.0814803 17.4746 1.02611 20.3385 3.70201C21.0791 4.39309 21.6858 5.20052 22.1936 6.07542C22.2477 6.17315 22.3065 6.26855 22.3653 6.36861Z" fill="black"/>
<path d="M79.9361 15.3247C79.8914 13.5214 79.9972 11.7204 79.7715 9.9613C79.3153 6.41747 76.7313 3.78578 73.1926 3.1552C70.2865 2.63631 67.4649 3.04118 64.7845 4.27675C63.7499 4.75375 62.9129 5.46113 62.3791 6.49658C62.0171 7.19697 61.1918 7.40639 60.4558 7.04573C59.7269 6.68972 59.4283 5.92883 59.7528 5.19121C60.0443 4.52573 60.5052 3.97193 61.0107 3.45536C62.4121 2.02666 64.1426 1.16572 66.0612 0.658464C68.6077 -0.0163285 71.1917 -0.228075 73.7899 0.286163C78.3113 1.17968 81.1093 3.94168 82.4355 8.24174C82.7341 9.20506 82.8493 10.201 82.8493 11.2108C82.8422 16.3509 82.8469 21.4909 82.8469 26.6333C82.8469 28.6158 82.6024 30.5611 81.9041 32.4319C80.5145 36.1549 77.787 38.3747 73.9286 39.2706C71.3916 39.8593 68.8287 39.943 66.2705 39.3869C61.9395 38.4469 58.817 35.2241 58.0105 30.9008C57.6907 29.1859 57.6719 27.485 58.208 25.8026C58.8428 23.8085 60.1172 22.2891 61.8031 21.0791C63.5712 19.8133 65.5487 18.964 67.5919 18.2543C70.6838 17.1839 73.8674 16.4696 77.0769 15.8529C78.0033 15.6738 78.9368 15.5109 79.9361 15.3247ZM79.8937 18.3311C79.8326 18.3311 79.8044 18.3264 79.7762 18.3311C76.6067 18.8872 73.4536 19.5271 70.3664 20.4415C68.3396 21.0419 66.3528 21.7399 64.5235 22.8149C63.3385 23.5107 62.271 24.3367 61.568 25.5397C60.745 26.9498 60.5475 28.4739 60.832 30.0608C61.3799 33.1137 63.0681 35.273 66.073 36.2549C68.9321 37.188 71.8077 36.9902 74.601 35.9408C76.8136 35.1101 78.3043 33.5302 79.1343 31.3406C79.6751 29.9119 79.8749 28.425 79.8843 26.9149C79.9031 24.1552 79.889 21.3955 79.889 18.6359V18.3311H79.8937Z" fill="black"/>
<path d="M109.165 22.5148C108.405 23.6782 107.665 24.8067 106.926 25.9376C104.168 30.1586 101.41 34.3772 98.6568 38.5981C98.29 39.1612 97.8057 39.4497 97.1168 39.3311C96.5195 39.2264 96.0211 38.7424 95.9035 38.1537C95.8212 37.7441 95.9529 37.3858 96.1739 37.0484C97.9374 34.3492 99.7008 31.6524 101.464 28.9532C103.402 25.9888 105.334 23.0244 107.279 20.0646C107.397 19.8854 107.387 19.7714 107.274 19.6015C104.323 15.0967 101.38 10.5872 98.4335 6.07776C97.7869 5.08651 97.1379 4.09759 96.4913 3.10634C96.1716 2.61537 96.0916 2.10114 96.4067 1.58457C96.7218 1.06568 97.2014 0.807395 97.8198 0.82601C98.3371 0.842298 98.6921 1.12618 98.9625 1.53803C100.282 3.55776 101.603 5.5798 102.922 7.59953C104.965 10.7268 107.011 13.8542 109.054 16.9815C109.085 17.028 109.115 17.0745 109.165 17.1467C109.23 17.0536 109.292 16.9745 109.346 16.8907C112.659 11.8205 115.974 6.75255 119.28 1.67765C119.637 1.13083 120.065 0.753878 120.768 0.830664C121.753 0.9377 122.565 2.01969 121.838 3.12728C119.538 6.62224 117.258 10.1288 114.97 13.6331C113.67 15.6226 112.374 17.6144 111.064 19.5969C110.938 19.79 110.961 19.9087 111.076 20.0832C114.756 25.7049 118.431 31.329 122.099 36.9577C122.257 37.1997 122.4 37.4859 122.438 37.7674C122.529 38.4562 122.099 39.0518 121.417 39.2822C120.752 39.5079 120.136 39.2822 119.72 38.6493C118.626 36.9809 117.538 35.3102 116.449 33.6419C114.084 30.0236 111.718 26.403 109.353 22.7847C109.299 22.7033 109.245 22.6288 109.165 22.5148Z" fill="black"/>
<path d="M138.417 19.9529C138.417 25.9213 138.417 31.8874 138.417 37.8558C138.417 38.5399 138.106 39.003 137.514 39.224C136.933 39.4428 136.256 39.2938 135.852 38.861C135.609 38.6028 135.518 38.2863 135.492 37.9443C135.485 37.8512 135.485 37.7581 135.485 37.665C135.485 25.8678 135.485 14.0729 135.485 2.27565C135.485 1.7777 135.558 1.30302 135.981 0.970274C136.493 0.570052 137.065 0.516534 137.648 0.788778C138.2 1.04706 138.419 1.51243 138.419 2.10346C138.414 8.05327 138.417 14.0031 138.417 19.9529Z" fill="black"/>
<path d="M1.11923 56.9432H0.340962V62.9023H1.11923V56.9432Z" fill="black"/>
<path d="M5.15871 56.9432H5.93463V62.2554H8.50691V62.9023H5.15871V56.9432Z" fill="black"/>
<path d="M12.5111 56.9432V60.4707C12.5111 61.8063 13.1107 62.3717 13.9148 62.3717C14.8083 62.3717 15.3797 61.7877 15.3797 60.4707V56.9432H16.165V60.4172C16.165 62.2484 15.1916 62.9977 13.8866 62.9977C12.6545 62.9977 11.7258 62.2996 11.7258 60.4521V56.9432H12.5111Z" fill="black"/>
<path d="M25.2691 60.2845C25.2244 59.4538 25.1703 58.4556 25.1798 57.711H25.1539C24.9493 58.4091 24.6977 59.1514 24.3944 59.9751L23.3316 62.865H22.7415L21.7681 60.0263C21.4836 59.1863 21.2414 58.4184 21.0721 57.711H21.0533C21.0345 58.4533 20.9898 59.4538 20.9381 60.345L20.7782 62.8999H20.0375L20.4584 56.9408H21.4506L22.4781 59.8238C22.7274 60.5568 22.9343 61.2106 23.0848 61.8296H23.1106C23.2635 61.2293 23.4774 60.5754 23.7455 59.8238L24.8177 56.9408H25.8099L26.1861 62.8999H25.4266L25.2691 60.2845Z" fill="black"/>
<path d="M30.8345 56.9432H30.0586V62.9023H30.8345V56.9432Z" fill="black"/>
<path d="M34.874 62.9023V56.9432H35.7228L37.6532 59.9588C38.1 60.6568 38.4479 61.2851 38.7348 61.8947L38.7536 61.8854C38.6831 61.0896 38.6643 60.3637 38.6643 59.4352V56.9432H39.3979V62.9023H38.6125L36.701 59.8797C36.2801 59.2165 35.878 58.5347 35.5747 57.8902L35.5488 57.8995C35.5935 58.6511 35.6123 59.3678 35.6123 60.3567V62.9023H34.874Z" fill="black"/>
<path d="M44.4084 61.0268L43.783 62.8999H42.9788L45.0244 56.9408H45.9626L48.0176 62.8999H47.1876L46.5457 61.0268H44.4084ZM46.3811 60.4265L45.791 58.7116C45.6569 58.323 45.5676 57.9693 45.4782 57.6249H45.4594C45.3701 57.9786 45.2713 58.3416 45.1561 58.7046L44.5659 60.4288H46.3811V60.4265Z" fill="black"/>
<path d="M51.5821 62.9023V56.9432H52.4309L54.3613 59.9588C54.8081 60.6568 55.1561 61.2851 55.4429 61.8947L55.4617 61.8854C55.3912 61.0896 55.3724 60.3637 55.3724 59.4352V56.9432H56.106V62.9023H55.3206L53.4091 59.8797C52.9882 59.2165 52.5861 58.5347 52.2828 57.8902L52.2569 57.8995C52.3016 58.6511 52.3204 59.3678 52.3204 60.3567V62.9023H51.5821Z" fill="black"/>
<path d="M60.1431 57.0223C60.6157 56.9525 61.18 56.8989 61.796 56.8989C62.9129 56.8989 63.7076 57.1549 64.2343 57.6412C64.7704 58.1275 65.0831 58.8163 65.0831 59.7796C65.0831 60.7522 64.7798 61.548 64.2155 62.0972C63.6535 62.6533 62.7224 62.9535 61.5539 62.9535C60.999 62.9535 60.5358 62.9279 60.1431 62.8837V57.0223ZM60.919 62.2903C61.1165 62.3252 61.401 62.3345 61.7043 62.3345C63.3667 62.3345 64.2672 61.4154 64.2672 59.8052C64.2766 58.3998 63.4725 57.5063 61.829 57.5063C61.4269 57.5063 61.1236 57.5412 60.9167 57.5854V62.2903H60.919Z" fill="black"/>
<path d="M73.9192 59.8611C73.9192 61.9134 72.6589 63 71.1235 63C69.5341 63 68.4172 61.7807 68.4172 59.9774C68.4172 58.0857 69.6046 56.8478 71.2129 56.8478C72.8564 56.8454 73.9192 58.0926 73.9192 59.8611ZM69.2472 59.9565C69.2472 61.2293 69.9432 62.3694 71.1682 62.3694C72.4003 62.3694 73.0986 61.2455 73.0986 59.8936C73.0986 58.7093 72.4731 57.4714 71.1776 57.4714C69.8891 57.4737 69.2472 58.6488 69.2472 59.9565Z" fill="black"/>
<path d="M87.2579 60.2845C87.2132 59.4538 87.1592 58.4556 87.1686 57.711H87.1427C86.9381 58.4091 86.6866 59.1514 86.3832 59.9751L85.3205 62.865H84.7303L83.7569 60.0263C83.4724 59.1863 83.2302 58.4184 83.0609 57.711H83.0421C83.0233 58.4533 82.9786 59.4538 82.9269 60.345L82.767 62.8999H82.0263L82.4472 56.9408H83.4395L84.467 59.8238C84.7162 60.5568 84.9231 61.2106 85.0736 61.8296H85.1018C85.2523 61.2293 85.4686 60.5754 85.7366 59.8238L86.8088 56.9408H87.801L88.1773 62.8999H87.4178L87.2579 60.2845Z" fill="black"/>
<path d="M97.1944 59.8611C97.1944 61.9134 95.9341 63 94.3987 63C92.8092 63 91.6924 61.7807 91.6924 59.9774C91.6924 58.0857 92.8798 56.8478 94.4881 56.8478C96.1316 56.8454 97.1944 58.0926 97.1944 59.8611ZM92.5224 59.9565C92.5224 61.2293 93.2184 62.3694 94.4434 62.3694C95.6754 62.3694 96.3738 61.2455 96.3738 59.8936C96.3738 58.7093 95.7483 57.4714 94.4528 57.4714C93.1643 57.4737 92.5224 58.6488 92.5224 59.9565Z" fill="black"/>
<path d="M105.958 60.2845C105.913 59.4538 105.859 58.4556 105.868 57.711H105.842C105.638 58.4091 105.386 59.1514 105.083 59.9751L104.02 62.865H103.43L102.457 60.0263C102.172 59.1863 101.93 58.4184 101.761 57.711H101.742C101.723 58.4533 101.678 59.4538 101.626 60.345L101.467 62.8999H100.726L101.147 56.9408H102.139L103.167 59.8238C103.416 60.5568 103.623 61.2106 103.773 61.8296H103.799C103.952 61.2293 104.166 60.5754 104.434 59.8238L105.506 56.9408H106.498L106.875 62.8999H106.115L105.958 60.2845Z" fill="black"/>
<path d="M113.867 60.1077H111.525V62.2554H114.135V62.9023H110.749V56.9432H114.001V57.5877H111.525V59.4701H113.867V60.1077Z" fill="black"/>
<path d="M117.824 62.9023V56.9432H118.673L120.604 59.9588C121.05 60.6568 121.398 61.2851 121.685 61.8947L121.704 61.8854C121.633 61.0896 121.615 60.3637 121.615 59.4352V56.9432H122.348V62.9023H121.563L119.651 59.8797C119.23 59.2165 118.828 58.5347 118.525 57.8902L118.499 57.8995C118.544 58.6511 118.563 59.3678 118.563 60.3567V62.9023H117.824Z" fill="black"/>
<path d="M127.528 57.597H125.696V56.9432H130.154V57.597H128.313V62.9023H127.528V57.597Z" fill="black"/>
<path d="M138.41 59.8611C138.41 61.9134 137.149 63 135.614 63C134.025 63 132.908 61.7807 132.908 59.9774C132.908 58.0857 134.095 56.8478 135.703 56.8478C137.347 56.8454 138.41 58.0926 138.41 59.8611ZM133.738 59.9565C133.738 61.2293 134.434 62.3694 135.659 62.3694C136.891 62.3694 137.589 61.2455 137.589 59.8936C137.589 58.7093 136.964 57.4714 135.668 57.4714C134.38 57.4737 133.738 58.6488 133.738 59.9565Z" fill="black"/>
<path d="M141.993 61.9645C142.341 62.1763 142.851 62.3531 143.387 62.3531C144.182 62.3531 144.648 61.9366 144.648 61.3363C144.648 60.7802 144.326 60.4614 143.512 60.1519C142.529 59.8075 141.923 59.3026 141.923 58.4626C141.923 57.5342 142.701 56.8454 143.869 56.8454C144.485 56.8454 144.932 56.9874 145.2 57.1363L144.986 57.7645C144.789 57.6575 144.387 57.4807 143.844 57.4807C143.021 57.4807 142.708 57.967 142.708 58.3742C142.708 58.9303 143.075 59.2049 143.905 59.5237C144.923 59.9123 145.44 60.3986 145.44 61.2735C145.44 62.1926 144.751 62.9884 143.331 62.9884C142.75 62.9884 142.115 62.8208 141.793 62.6091L141.993 61.9645Z" fill="black"/>
<path d="M156.879 60.1077H154.537V62.2554H157.147V62.9023H153.761V56.9432H157.013V57.5877H154.537V59.4701H156.879V60.1077Z" fill="black"/>
<path d="M160.73 61.9645C161.078 62.1763 161.589 62.3531 162.125 62.3531C162.919 62.3531 163.385 61.9366 163.385 61.3363C163.385 60.7802 163.063 60.4614 162.249 60.1519C161.266 59.8075 160.66 59.3026 160.66 58.4626C160.66 57.5342 161.438 56.8454 162.607 56.8454C163.223 56.8454 163.669 56.9874 163.937 57.1363L163.723 57.7645C163.526 57.6575 163.124 57.4807 162.581 57.4807C161.758 57.4807 161.445 57.967 161.445 58.3742C161.445 58.9303 161.812 59.2049 162.642 59.5237C163.66 59.9123 164.177 60.3986 164.177 61.2735C164.177 62.1926 163.488 62.9884 162.068 62.9884C161.487 62.9884 160.853 62.8208 160.53 62.6091L160.73 61.9645Z" fill="black"/>
<path d="M167.92 57.013C168.297 56.9525 168.788 56.8989 169.411 56.8989C170.18 56.8989 170.742 57.0758 171.099 57.3946C171.431 57.6784 171.626 58.1112 171.626 58.6418C171.626 59.1816 171.466 59.6051 171.161 59.9146C170.749 60.3474 170.079 60.5684 169.319 60.5684C169.087 60.5684 168.873 60.5591 168.694 60.5149V62.9023H167.916V57.013H167.92ZM168.699 59.8866C168.868 59.9309 169.082 59.9495 169.341 59.9495C170.279 59.9495 170.85 59.4981 170.85 58.6767C170.85 57.8902 170.288 57.5086 169.43 57.5086C169.091 57.5086 168.83 57.5342 168.699 57.5714V59.8866Z" fill="black"/>
<path d="M178.473 60.1077H176.133V62.2554H178.741V62.9023H175.355V56.9432H178.607V57.5877H176.133V59.4701H178.473V60.1077Z" fill="black"/>
<path d="M186.639 62.7068C186.352 62.8488 185.781 62.9907 185.049 62.9907C183.352 62.9907 182.075 61.9296 182.075 59.9751C182.075 58.1089 183.352 56.8454 185.219 56.8454C185.969 56.8454 186.444 57.0037 186.648 57.1107L186.46 57.7389C186.166 57.597 185.745 57.4923 185.245 57.4923C183.834 57.4923 182.896 58.3858 182.896 59.9495C182.896 61.4084 183.745 62.3461 185.209 62.3461C185.682 62.3461 186.166 62.2484 186.477 62.0995L186.639 62.7068Z" fill="black"/>
<path d="M191.073 56.9432H190.295V62.9023H191.073V56.9432Z" fill="black"/>
<path d="M196.084 61.0268L195.459 62.8999H194.654L196.7 56.9408H197.638L199.693 62.8999H198.863L198.219 61.0268H196.084ZM198.059 60.4265L197.469 58.7116C197.335 58.323 197.245 57.9693 197.156 57.6249H197.137C197.048 57.9786 196.949 58.3416 196.834 58.7046L196.244 60.4288H198.059V60.4265Z" fill="black"/>
<path d="M204.036 56.9432H203.258V62.9023H204.036V56.9432Z" fill="black"/>
<path d="M207.967 61.9645C208.315 62.1763 208.825 62.3531 209.362 62.3531C210.156 62.3531 210.622 61.9366 210.622 61.3363C210.622 60.7802 210.3 60.4614 209.489 60.1519C208.506 59.8075 207.899 59.3026 207.899 58.4626C207.899 57.5342 208.677 56.8454 209.846 56.8454C210.462 56.8454 210.909 56.9874 211.177 57.1363L210.963 57.7645C210.765 57.6575 210.363 57.4807 209.82 57.4807C208.997 57.4807 208.687 57.967 208.687 58.3742C208.687 58.9303 209.054 59.2049 209.884 59.5237C210.902 59.9123 211.421 60.3986 211.421 61.2735C211.421 62.1926 210.732 62.9884 209.312 62.9884C208.731 62.9884 208.097 62.8208 207.774 62.6091L207.967 61.9645Z" fill="black"/>
</svg>
